<svg id="Layer_1" data-name="Layer 1" xmlns="http://www.w3.org/2000/svg" viewBox="0 0 721.9 823.07"><defs><style>.cls-1{fill:#0091cc;}.cls-2{fill:#fff;}</style></defs><path class="cls-1" d="M7572.66,6877.63s-25.74,26.75-104.91,26.75a443.11,443.11,0,0,1-60.92-4.54c-133.05-18.52-189.81-82.1-189.81-82.1s-56.78,63.58-189.85,82.1a443.14,443.14,0,0,1-60.93,4.54c-79.15,0-104.91-26.75-104.91-26.75s-76.89,492.52,355.69,763.19C7649.55,7370.15,7572.66,6877.63,7572.66,6877.63Z" transform="translate(-6856.05 -6817.74)"/><polygon class="cls-2" points="569.51 320.12 414.86 320.12 414.86 165.47 296.13 165.47 296.13 320.12 141.49 320.12 141.49 438.84 296.13 438.84 296.13 593.49 414.86 593.49 414.86 438.84 569.51 438.84 569.51 320.12"/></svg>